<svg width="32" height="43" viewBox="0 0 32 43" fill="none" xmlns="http://www.w3.org/2000/svg">
<path d="M29.6468 29.8013C28.6453 30.8213 27.3706 31.5693 25.9594 31.9319C24.9124 32.2039 25.14 32.1812 20.1325 32.2039C17.6287 32.2039 15.3298 32.2039 15.0339 32.1812C9.32081 31.8412 4.24501 28.4867 1.67297 23.3642C0.876318 21.7776 0.352802 20.055 0.147949 18.3777C0.102426 18.083 0.0569036 17.6977 0.0341421 17.5617C-0.0113807 17.199 -0.0113807 15.3631 0.0341421 15.0005C0.0569036 14.8418 0.102426 14.4791 0.147949 14.1845C0.557655 10.7393 2.242 7.3847 4.81404 4.91411C4.85957 4.86878 4.90509 4.84611 4.92785 4.80078L7.18123 7.09004C7.13571 7.13537 7.06743 7.1807 7.0219 7.2487C5.29204 8.97131 4.17672 10.9433 3.58493 13.2325C2.97037 15.5898 3.10694 18.2417 3.94911 20.5989C4.35882 21.7549 5.17823 23.2282 5.97488 24.2028C6.38458 24.7241 7.59094 25.9028 8.09169 26.2881C10.0719 27.8067 12.3708 28.736 14.7835 28.9627C15.0794 28.9853 17.5832 29.008 19.9959 29.008C22.2265 29.008 24.3661 29.008 24.5482 28.9627C25.618 28.804 26.5512 28.328 27.3479 27.5347L29.6468 29.8013Z" fill="#CB2B27"/>
<path d="M15.6939 24.7242C14.9882 24.7015 14.2599 24.5655 13.5543 24.3388C13.008 24.1575 11.8927 23.6135 11.4147 23.2735C10.9595 22.9562 10.1856 22.2309 9.84417 21.8003C8.97923 20.7576 8.38743 19.443 8.1143 18.0377C8.02325 17.5391 8.00049 17.3577 8.00049 16.5644C8.00049 15.8844 8.02325 15.5671 8.06877 15.2498C8.38743 13.3912 9.20685 11.8046 10.527 10.5579C12.4845 8.67667 15.1248 7.92869 17.7651 8.49534C20.1779 8.99399 22.2264 10.6259 23.3189 12.8925C23.5465 13.3459 23.7969 13.9805 23.7969 14.0938C23.7969 14.1392 23.5921 14.1618 22.363 14.1392H20.929L20.7697 13.8445C19.9275 12.3032 18.6984 11.3513 17.0823 11.0113C16.6271 10.9206 15.6939 10.8979 15.2386 10.9659C13.3267 11.3059 11.7561 12.6205 11.096 14.5018C10.7091 15.5671 10.6636 16.7911 10.914 17.947C11.1188 18.8763 11.6878 19.8963 12.3934 20.5763C13.1901 21.3696 14.2599 21.8909 15.3752 22.0496L15.5573 22.0722L17.4465 20.191C18.4935 19.171 19.3357 18.3097 19.3357 18.287C19.3357 18.2644 18.6984 18.2417 17.9017 18.2417C16.8319 18.2417 16.445 18.2417 16.4222 18.1964C16.3539 18.1284 16.3539 15.7711 16.4222 15.7031C16.4677 15.6578 17.3782 15.6578 20.2917 15.6578C24.0245 15.6578 24.1156 15.6578 24.1611 15.7484C24.1839 15.7938 24.2066 17.0631 24.2066 19.579C24.2066 22.0722 24.1839 23.3415 24.1611 23.4095C24.1156 23.4775 24.0701 23.5002 22.9092 23.5002C22.0215 23.5002 21.6801 23.4775 21.6573 23.4549C21.6118 23.4095 21.6118 22.9789 21.6118 21.7323C21.6118 20.4403 21.5891 20.0776 21.5663 20.0776C21.5435 20.0776 20.4738 21.1203 19.1764 22.3896L16.8547 24.7015H16.5816C16.445 24.7015 16.2401 24.7015 16.1718 24.7242C16.0353 24.7468 15.8532 24.7468 15.6939 24.7242Z" fill="white"/>
<path d="M31.7181 26.2654C31.3539 27.6027 30.6256 28.8266 29.6468 29.8012L27.3935 27.5347C28.0991 26.832 28.4632 26.152 28.7364 25.0867C28.8047 24.8147 28.8047 24.3614 28.8274 20.4402C28.8502 15.1591 28.8274 14.7057 28.4632 13.2324C27.2796 8.42727 23.3419 4.71005 18.471 3.75809C17.6516 3.59942 16.8322 3.53143 16.0127 3.53143C13.5545 3.53143 11.119 4.25674 9.04774 5.61669C8.34214 6.09268 7.79586 6.52333 7.20406 7.11265L4.95068 4.82338C6.72608 3.12344 8.61527 1.96747 10.8687 1.2195C12.5985 0.630184 14.1235 0.380859 16.0127 0.380859C17.1963 0.380859 17.606 0.426192 18.6758 0.584853C22.8639 1.2875 26.6196 3.64476 29.1233 7.15798C30.489 9.08458 31.3995 11.3285 31.7864 13.6631C31.9913 14.9324 31.9913 14.9097 31.9913 20.0549C32.014 25.4041 32.014 25.1774 31.7181 26.2654Z" fill="#FF5E0F"/>
<path fill-rule="evenodd" clip-rule="evenodd" d="M16.83 40.5015H18.0591V41.2681H14.6489V40.5015H15.9918V37.2379L14.74 37.6686V36.862L16.3135 36.2743L16.3441 36.2629H16.83V40.5015Z" fill="white"/>
<path d="M6.49658 42.5605H2.24365V41.7939H6.49658V42.5605ZM21.5894 36.127C22.0341 36.127 22.4318 36.2506 22.7788 36.4727L22.7817 36.4746L22.7837 36.4766C23.1117 36.7027 23.3595 37.0256 23.5298 37.4131C23.7021 37.8054 23.7719 38.2625 23.772 38.7539C23.772 39.2478 23.7009 39.6803 23.5308 40.0918L23.5298 40.0938V40.0957C23.3595 40.4831 23.1117 40.8061 22.7837 41.0322C22.4549 41.2588 22.0546 41.3818 21.5894 41.3818C21.1444 41.3818 20.746 41.2583 20.3989 41.0361L20.397 41.0342L20.394 41.0322C20.0662 40.8062 19.8191 40.483 19.6489 40.0957C19.4765 39.7033 19.4058 39.2455 19.4058 38.7539C19.4058 38.2625 19.4766 37.8054 19.6489 37.4131C19.8191 37.0257 20.0661 36.7027 20.394 36.4766C20.7229 36.2498 21.1239 36.127 21.5894 36.127ZM10.2993 36.1729C10.6652 36.1729 11.0058 36.245 11.3198 36.3652L11.3257 36.3682L11.3306 36.3701C11.6436 36.514 11.938 36.7089 12.1851 36.9795C12.4326 37.2507 12.6088 37.5738 12.6841 37.9482L12.7271 38.1631H11.8462L11.8101 38.0312C11.7519 37.8189 11.6348 37.6405 11.4692 37.4756C11.3018 37.3089 11.1199 37.1909 10.9478 37.1338L10.938 37.1299C10.7312 37.0475 10.5261 37.0068 10.2993 37.0068C9.96746 37.0069 9.65713 37.0892 9.38818 37.2324C9.1121 37.4023 8.88959 37.6071 8.75049 37.8643L8.74854 37.8691L8.74561 37.874C8.58672 38.1313 8.52198 38.4353 8.52197 38.7998C8.52202 39.1086 8.6046 39.4197 8.75049 39.6895C8.8929 39.9528 9.09714 40.1572 9.36963 40.3242C9.63653 40.4878 9.92226 40.5693 10.2534 40.5693C10.6901 40.5693 11.0523 40.4255 11.3101 40.1689L11.3149 40.1641C11.5518 39.945 11.7088 39.6502 11.7905 39.2959H10.0513V38.4844H12.7104V41.2686H11.9478L11.9204 40.6504C11.7819 40.8051 11.6192 40.9368 11.436 41.041C11.0934 41.236 10.698 41.3584 10.2534 41.3584C9.76701 41.3583 9.32665 41.2373 8.93604 41.0186L8.93311 41.0166L8.9292 41.0146C8.54683 40.7767 8.22583 40.4843 8.00244 40.0889L8.00049 40.085C7.78134 39.6727 7.68412 39.2583 7.68408 38.7998C7.68409 38.5085 7.7327 38.2201 7.8042 37.959L7.80811 37.9453C7.90366 37.6836 8.02427 37.4434 8.16943 37.2266L8.17334 37.2217L8.17725 37.2158C8.34566 37.0002 8.5154 36.8308 8.73193 36.6631C8.95551 36.4899 9.20478 36.3662 9.47803 36.292C9.73846 36.2213 10.0055 36.1729 10.2993 36.1729ZM27.438 38.0898L28.7817 36.2627H29.8442L27.9829 38.7754L29.897 41.2686H28.8755L27.439 39.4316L26.0015 41.2686H24.98L26.895 38.7754L25.0337 36.2627H26.0728L27.438 38.0898ZM11.5181 40.7734C11.5161 40.7749 11.5142 40.7769 11.5122 40.7783C11.5148 40.7764 11.5175 40.7743 11.52 40.7725L11.5181 40.7734ZM21.5894 36.9619C21.3074 36.9619 21.0702 37.0409 20.8735 37.1777C20.6568 37.3352 20.5177 37.5317 20.4146 37.7988C20.3089 38.0723 20.2447 38.3902 20.2446 38.7539C20.2446 39.1178 20.3089 39.4364 20.4146 39.71C20.5155 39.9713 20.6765 40.173 20.8823 40.3369C21.0682 40.4849 21.297 40.5469 21.5894 40.5469C21.8695 40.5468 22.1053 40.4683 22.3013 40.333C22.5047 40.1698 22.664 39.9692 22.7642 39.71C22.8698 39.4364 22.9341 39.1178 22.9341 38.7539C22.934 38.3903 22.8698 38.0723 22.7642 37.7988C22.6632 37.5375 22.5021 37.3358 22.2964 37.1719C22.1106 37.0239 21.8817 36.962 21.5894 36.9619ZM20.813 40.5098C20.8187 40.5139 20.8248 40.5175 20.8306 40.5215C20.8174 40.5124 20.8044 40.5029 20.7915 40.4932L20.813 40.5098ZM11.8901 40.4014C11.8931 40.3974 11.897 40.3937 11.8999 40.3896C11.9021 40.3866 11.9036 40.3829 11.9058 40.3799C11.9006 40.3871 11.8954 40.3943 11.8901 40.4014ZM22.9321 37.7344L22.9097 37.6797C22.9021 37.6619 22.8944 37.6442 22.8862 37.627C22.9025 37.6617 22.9179 37.6975 22.9321 37.7344ZM10.4224 36.8311C10.4124 36.8304 10.4021 36.8305 10.3921 36.8301H10.3892C10.4002 36.8306 10.4114 36.8304 10.4224 36.8311Z" fill="white"/>
</svg>
