<svg width="70" height="93" viewBox="0 0 70 93" fill="none" xmlns="http://www.w3.org/2000/svg">
<path d="M64.8523 64.4447C62.6615 66.6789 59.8732 68.3173 56.7862 69.1117C54.4958 69.7075 54.9938 69.6578 44.0398 69.7075C38.5628 69.7075 33.534 69.7075 32.8867 69.6578C20.3893 68.9131 9.28596 61.565 3.65962 50.3443C1.91695 46.8688 0.771755 43.0955 0.323639 39.4215C0.224058 38.776 0.124477 37.932 0.0746859 37.6341C-0.0248953 36.8397 -0.0248953 32.8181 0.0746859 32.0237C0.124477 31.6762 0.224058 30.8818 0.323639 30.2364C1.21987 22.6897 4.90438 15.3416 10.5307 9.92984C10.6303 9.83054 10.7299 9.78089 10.7797 9.68159L15.7089 14.6962C15.6094 14.7955 15.46 14.8948 15.3604 15.0437C11.5763 18.817 9.13658 23.1365 7.84203 28.1511C6.49768 33.3146 6.79643 39.1236 8.63868 44.2871C9.53491 46.8192 11.3274 50.0464 13.07 52.1813C13.9663 53.3232 16.6052 55.905 17.7006 56.749C22.0324 60.0755 27.0612 62.1112 32.339 62.6076C32.9863 62.6573 38.4633 62.7069 43.7411 62.7069C48.6206 62.7069 53.3009 62.7069 53.6992 62.6076C56.0394 62.2601 58.0808 61.2175 59.8234 59.4797L64.8523 64.4447Z" fill="#CB2B27"/>
<path d="M34.3307 53.3233C32.7872 53.2736 31.1939 52.9757 29.6504 52.4792C28.4554 52.082 26.0157 50.8904 24.9701 50.1457C23.9742 49.4506 22.2814 47.8618 21.5345 46.9185C19.6425 44.6346 18.3479 41.755 17.7504 38.6767C17.5513 37.5845 17.5015 37.1873 17.5015 35.4495C17.5015 33.9601 17.5513 33.265 17.6508 32.5699C18.3479 28.4987 20.1404 25.0232 23.0282 22.2925C27.3102 18.1716 33.0859 16.5332 38.8617 17.7744C44.1395 18.8667 48.6206 22.4415 51.0106 27.4064C51.5085 28.3994 52.0562 29.7895 52.0562 30.0378C52.0562 30.1371 51.608 30.1867 48.9194 30.1371H45.7825L45.434 29.4916C43.5918 26.1155 40.9031 24.0302 37.3679 23.2855C36.3721 23.0869 34.3307 23.0372 33.3349 23.1862C29.1525 23.9309 25.7169 26.8106 24.273 30.9315C23.4266 33.265 23.327 35.946 23.8747 38.4781C24.3228 40.5138 25.5675 42.748 27.1111 44.2374C28.8537 45.9752 31.1939 47.1171 33.6336 47.4646L34.032 47.5143L38.1646 43.3934C40.4549 41.1592 42.2972 39.2725 42.2972 39.2229C42.2972 39.1732 40.9031 39.1236 39.1604 39.1236C36.8202 39.1236 35.9738 39.1236 35.924 39.0243C35.7746 38.8753 35.7746 33.7118 35.924 33.5629C36.0236 33.4636 38.0152 33.4636 44.3884 33.4636C52.5541 33.4636 52.7532 33.4636 52.8528 33.6622C52.9026 33.7615 52.9524 36.5418 52.9524 42.0529C52.9524 47.5143 52.9026 50.2947 52.8528 50.4436C52.7532 50.5925 52.6536 50.6422 50.1143 50.6422C48.1725 50.6422 47.4256 50.5925 47.3758 50.5429C47.2763 50.4436 47.2763 49.5003 47.2763 46.7696C47.2763 43.9396 47.2265 43.1452 47.1767 43.1452C47.1269 43.1452 44.7867 45.429 41.9487 48.2094L36.87 53.2736H36.2725C35.9738 53.2736 35.5257 53.2736 35.3763 53.3233C35.0776 53.3729 34.6792 53.3729 34.3307 53.3233Z" fill="#181717"/>
<path d="M69.3833 56.6994C68.5866 59.6287 66.9933 62.3097 64.8523 64.4447L59.923 59.4797C61.4665 57.9406 62.2632 56.4511 62.8607 54.1176C63.01 53.5218 63.01 52.5289 63.0598 43.9395C63.1096 32.3713 63.0598 31.3783 62.2632 28.1511C59.6741 17.6255 51.0603 9.483 40.4051 7.39773C38.6126 7.05019 36.8202 6.90124 35.0277 6.90124C29.6503 6.90124 24.3227 8.49001 19.7918 11.469C18.2483 12.5116 17.0533 13.4549 15.7587 14.7458L10.8295 9.73124C14.7131 6.00755 18.8458 3.47544 23.775 1.83702C27.5591 0.54614 30.8951 0 35.0277 0C37.6168 0 38.5131 0.0992992 40.8532 0.446844C50.0147 1.98597 58.2302 7.14949 63.7071 14.8451C66.6946 19.0653 68.6862 23.9806 69.5326 29.0944C69.9807 31.8748 69.9807 31.8251 69.9807 43.0955C70.0305 54.8127 70.0305 54.3162 69.3833 56.6994Z" fill="#FF5E0F"/>
<path fill-rule="evenodd" clip-rule="evenodd" d="M36.816 87.8835H39.5047V89.5627H32.0448V87.8835H34.9824V80.7347L32.2441 81.6781V79.9113L35.6862 78.624L35.7531 78.599H36.816V87.8835Z" fill="#181717"/>
<path d="M14.2106 92.3926H4.90881V90.7139H14.2106V92.3926ZM47.2262 78.3008C48.1995 78.3008 49.0705 78.5719 49.8297 79.0586L49.8356 79.0625L49.8405 79.0664C50.5579 79.5618 51.0989 80.2695 51.4713 81.1182C51.8484 81.9776 52.0015 82.9791 52.0016 84.0557C52.0016 85.1375 51.8465 86.0849 51.4742 86.9863L51.4723 86.9902L51.4713 86.9941C51.0989 87.8428 50.5579 88.5506 49.8405 89.0459C49.121 89.5425 48.2443 89.8106 47.2262 89.8106C46.253 89.8105 45.3828 89.5403 44.6237 89.0537L44.6119 89.0459C43.8947 88.5506 43.3544 87.8426 42.9821 86.9941C42.6049 86.1346 42.4508 85.1324 42.4508 84.0557C42.4508 82.979 42.605 81.9776 42.9821 81.1182C43.3544 80.2696 43.8947 79.5617 44.6119 79.0664C45.3313 78.5698 46.2082 78.3008 47.2262 78.3008ZM22.5299 78.4004C23.3304 78.4004 24.0753 78.5608 24.7623 78.8242L24.775 78.8281L24.7867 78.834C25.4713 79.1491 26.1155 79.5753 26.6559 80.168C27.1974 80.762 27.5812 81.4708 27.7457 82.291L27.8405 82.7607H25.9137L25.8346 82.4717C25.7073 82.0065 25.4516 81.617 25.0895 81.2559C24.7232 80.8906 24.3256 80.6321 23.9489 80.5068L23.9274 80.499C23.4748 80.3185 23.0262 80.2285 22.5299 80.2285C21.8037 80.2286 21.1242 80.4088 20.5358 80.7227C19.9319 81.0949 19.4474 81.5441 19.1432 82.1074L19.1315 82.127C18.7836 82.6907 18.6422 83.3565 18.6422 84.1553C18.6422 84.8318 18.824 85.5134 19.1432 86.1045C19.4547 86.6811 19.8999 87.1295 20.4957 87.4951C21.0798 87.8535 21.7055 88.0322 22.4303 88.0322C23.3857 88.0322 24.177 87.7165 24.7408 87.1543L24.7467 87.1494L24.7516 87.1445C25.2697 86.6648 25.6128 86.0193 25.7916 85.2432H21.9869V83.4649H27.8033V89.5625H26.1373L26.0748 88.209C25.772 88.5478 25.4169 88.8362 25.0162 89.0645C24.2667 89.4915 23.4028 89.7617 22.4303 89.7617C21.366 89.7617 20.4031 89.495 19.5485 89.0156L19.5406 89.0117L19.5328 89.0068C18.6965 88.4856 17.9951 87.8457 17.5065 86.9795L17.5045 86.9746L17.5016 86.9707C17.0221 86.0676 16.8092 85.1598 16.8092 84.1553C16.8092 83.5173 16.9155 82.8863 17.0719 82.3145L17.0758 82.2988L17.0817 82.2832C17.2907 81.7101 17.5532 81.1849 17.8707 80.71L17.8785 80.6982L17.8873 80.6875C18.2559 80.2149 18.6283 79.8441 19.1022 79.4766C19.5913 79.0972 20.1362 78.8247 20.734 78.6621C21.3035 78.5073 21.8874 78.4004 22.5299 78.4004ZM60.0201 82.6006L62.9596 78.5986H65.2838L61.2125 84.1016L65.4 89.5625H63.1656L60.0221 85.5391L56.8795 89.5625H54.6451L58.8326 84.1016L54.7614 78.5986H57.0338L60.0201 82.6006ZM25.1832 88.4883C25.1876 88.4851 25.1925 88.4827 25.1969 88.4795C25.198 88.4787 25.1988 88.4774 25.1998 88.4766C25.1944 88.4806 25.1887 88.4843 25.1832 88.4883ZM25.3053 88.3955C25.3082 88.3932 25.3121 88.391 25.3151 88.3887C25.3204 88.3844 25.3254 88.3793 25.3307 88.375C25.3224 88.3817 25.3137 88.3889 25.3053 88.3955ZM47.2262 80.1289C46.6095 80.129 46.0919 80.3038 45.6617 80.6035C45.1877 80.9485 44.8825 81.3779 44.6569 81.9629C44.4257 82.5621 44.2848 83.2588 44.2848 84.0557C44.2848 84.8527 44.4257 85.5501 44.6569 86.1494C44.8778 86.722 45.2301 87.1633 45.6803 87.5225C46.0868 87.8467 46.5866 87.9824 47.2262 87.9824C47.8393 87.9824 48.3551 87.8102 48.7838 87.5137C49.2287 87.1561 49.5774 86.7173 49.7965 86.1494C50.0277 85.5501 50.1686 84.8527 50.1686 84.0557C50.1685 83.2588 50.0276 82.5621 49.7965 81.9629C49.5757 81.3904 49.2232 80.949 48.7731 80.5899C48.3665 80.2655 47.8659 80.1289 47.2262 80.1289ZM45.528 87.9014C45.5405 87.9104 45.5534 87.919 45.566 87.9277C45.5374 87.908 45.5091 87.8874 45.4811 87.8662L45.528 87.9014ZM26.0104 87.6641C26.0168 87.6553 26.0245 87.6475 26.0309 87.6387C26.0357 87.632 26.0398 87.6249 26.0446 87.6182C26.0335 87.6337 26.0217 87.6487 26.0104 87.6641ZM50.1637 81.8223L50.1158 81.7022C50.0992 81.6632 50.0818 81.6248 50.0641 81.5869C50.0997 81.663 50.1326 81.7417 50.1637 81.8223ZM22.733 79.8408C22.7551 79.8418 22.7775 79.8424 22.7994 79.8438C22.7755 79.8423 22.7513 79.8409 22.7272 79.8399L22.733 79.8408Z" fill="#181717"/>
</svg>
